<?xml version="1.0" encoding="utf-8"?>
<!-- Generator: Adobe Illustrator 26.3.1, SVG Export Plug-In . SVG Version: 6.00 Build 0)  -->
<svg version="1.1" id="Capa_1" xmlns="http://www.w3.org/2000/svg" xmlns:xlink="http://www.w3.org/1999/xlink" x="0px" y="0px"
	 viewBox="0 0 40 34" style="enable-background:new 0 0 40 34;" xml:space="preserve">
<style type="text/css">
	.st0{fill:#6F00A9;}
	.st1{fill:#F38D08;}
	.st2{fill:#00BE1B;}
	.st3{fill:#F38E08;}
	.st4{fill:#01BE1B;}
	.st5{fill:#00BF1B;}
	.st6{fill:#6F00AA;}
	.st7{fill:#F48E08;}
</style>
<g>
	<path class="st0" d="M25.96,12.86c-0.06,0.14-0.14,0.33-0.23,0.51c-2.44,4.72-4.43,9.6-5.48,14.83c-0.05,0.25-0.07,0.56-0.42,0.6
		c-0.42,0.04-0.46-0.31-0.52-0.59c-1.16-5.2-3.07-10.11-5.52-14.82c-0.34-0.64-0.18-1.01,0.49-1.18c3.65-0.93,7.31-1.01,10.97-0.05
		C25.75,12.28,25.96,12.49,25.96,12.86z"/>
	<path class="st1" d="M37.54,20.68c-0.09,0.56-0.53,0.67-0.89,0.85c-3.74,1.81-7.29,3.92-10.6,6.43c-0.64,0.48-1.26,0.99-1.89,1.48
		c-0.23,0.18-0.43,0.47-0.76,0.22c-0.33-0.25-0.12-0.54,0-0.79c1.15-2.5,2.12-5.07,2.91-7.7c0.69-2.29,1.24-4.62,1.65-6.98
		c0.12-0.68,0.41-1,1.08-0.69c3.34,1.55,6.11,3.81,8.3,6.77C37.43,20.39,37.48,20.57,37.54,20.68z"/>
	<path class="st2" d="M15.69,29.21c0.02,0.23-0.01,0.36-0.15,0.46c-0.22,0.15-0.39,0.05-0.56-0.09c-0.39-0.32-0.77-0.65-1.15-0.97
		c-3.31-2.76-6.89-5.11-10.68-7.15c-1.01-0.55-1.05-0.7-0.36-1.59c2.1-2.72,4.7-4.82,7.81-6.29c0.85-0.41,1.16-0.28,1.29,0.61
		c0.76,5.04,1.81,10,3.71,14.75C15.64,29.05,15.67,29.17,15.69,29.21z"/>
	<path class="st3" d="M39.27,11.91c0,1.47-0.94,2.48-2.32,2.49c-1.37,0.01-2.51-1.12-2.51-2.47c0-1.36,1.08-2.39,2.47-2.36
		C38.35,9.61,39.27,10.52,39.27,11.91z"/>
	<path class="st4" d="M0.73,11.74c0.01-1.39,0.98-2.39,2.32-2.39c1.37,0,2.47,1.08,2.46,2.39c-0.01,1.3-1.15,2.46-2.42,2.47
		C1.76,14.22,0.71,13.13,0.73,11.74z"/>
	<path class="st0" d="M22.11,6.69c0.02,1.31-1.01,2.37-2.32,2.42c-1.33,0.05-2.4-1.01-2.42-2.4c-0.02-1.39,0.97-2.43,2.36-2.45
		C21.05,4.23,22.1,5.3,22.11,6.69z"/>
</g>
<rect x="-24.19" class="st5" width="20.06" height="5.7"/>
<rect x="-24.19" y="9.14" class="st6" width="20.06" height="5.7"/>
<rect x="-24.19" y="18.28" class="st7" width="20.06" height="5.7"/>
</svg>
